{"title":"MYLENE FARMER-Quand[ Monkey Me]-( 24.11.2012)_1080p","uid":7854721,"size":199844008,"categoryP":"video","categoryS":"music_videos","magnet":"?xt=urn:btih:0818ae1b43b5e832b4fd0e2b48c2ad63b1c7c138&amp;dn=MYLENE+FARMER-Quand%5B+Monkey+Me%5D-%28+24.11.2012%29_1080p&amp;tr=udp%3A%2F%2Ftracker.openbittorrent.com%3A80&amp;tr=udp%3A%2F%2Fopen.demonii.com%3A1337&amp;tr=udp%3A%2F%2Ftracker.coppersurfer.tk%3A6969&amp;tr=udp%3A%2F%2Fexodus.desync.com%3A6969","seeders":1,"leechers":0,"uploader":null,"files":-1,"time":1353713212,"description":"VIDEOCLIP\n\nMYLENE FARMER---Quand---( 24.11.2012)\n\n\n\n\nFormat                                   : AVI\nFormat/Info                              : Audio Video Interleave\nFile size                                : 191 MiB\nDuration                                 : 4mn 4s\nOverall bit rate                         : 6 531 Kbps\nWriting library                          : TMPGEnc 4.0 XPress Version. 4.7.7.307\n\nVideo\nID                                       : 0\nFormat                                   : MPEG-4 Visual\nFormat profile                           : Advanced Simple@L5\nFormat settings, BVOP                    : 2\nFormat settings, QPel                    : No\nFormat settings, GMC                     : No warppoints\nFormat settings, Matrix                  : Default (H.263)\nMuxing mode                              : Packed bitstream\nCodec ID                                 : XVID\nCodec ID/Hint                            : XviD\nDuration                                 : 4mn 4s\nBit rate                                 : 4 981 Kbps\nWidth                                    : 1 920 pixels\nHeight                                   : 1 080 pixels\nDisplay aspect ratio                     : 16:9\nFrame rate                               : 25.000 fps\nColor space                              : YUV\nChroma subsampling                       : 4:2:0\nBit depth                                : 8 bits\nScan type                                : Progressive\nCompression mode                         : Lossy\nBits/(Pixel*Frame)                       : 0.096\nStream size                              : 145 MiB (76%)\nWriting library                          : XviD 64\n\nAudio\nID                                       : 1\nFormat                                   : PCM\nFormat settings, Endianness              : Little\nFormat settings, Sign                    : Signed\nCodec ID                                 : 1\nDuration                                 : 4mn 4s\nBit rate mode                            : Constant\nBit rate                                 : 1 536 Kbps\nChannel(s)                               : 2 channels\nSampling rate                            : 48.0 KHz\nBit depth                                : 16 bits\nStream size                              : 44.8 MiB (24%)\nInterleave, duration                     : 40 ms (1.00 video frame)\nInterleave, preload duration             : 479 ms\n\n","torrent":{"xt":"urn:btih:0818ae1b43b5e832b4fd0e2b48c2ad63b1c7c138","amp;dn":"MYLENE+FARMER-Quand%5B+Monkey+Me%5D-%28+24.11.2012%29_1080p","amp;tr":["udp%3A%2F%2Ftracker.openbittorrent.com%3A80","udp%3A%2F%2Fopen.demonii.com%3A1337","udp%3A%2F%2Ftracker.coppersurfer.tk%3A6969","udp%3A%2F%2Fexodus.desync.com%3A6969"],"infoHash":"0818ae1b43b5e832b4fd0e2b48c2ad63b1c7c138","infoHashBuffer":{"type":"Buffer","data":[8,24,174,27,67,181,232,50,180,253,14,43,72,194,173,99,177,199,193,56]},"announce":[],"urlList":[]}}